<svg width="48" height="50" fill="none" xmlns="http://www.w3.org/2000/svg"><rect width="48" height="50" rx="16" fill="#07484A"/><path d="m27.85 16.85 1.45 1.45-2.18 2.16c-.39.39-.39 1.03 0 1.42.39.39 1.03.39 1.42 0l2.16-2.18 1.45 1.45a.5.5 0 0 0 .85-.36V16.5c0-.28-.22-.5-.5-.5h-4.29a.5.5 0 0 0-.36.85zm-12 4.3 1.45-1.45 2.16 2.18c.39.39 1.03.39 1.42 0 .39-.39.39-1.03 0-1.42L18.7 18.3l1.45-1.45a.5.5 0 0 0-.36-.85H15.5c-.28 0-.5.22-.5.5v4.29c0 .45.54.67.85.36zm4.3 12L18.7 31.7l2.18-2.16c.39-.39.39-1.03 0-1.42-.39-.39-1.03-.39-1.42 0L17.3 30.3l-1.45-1.45a.5.5 0 0 0-.85.36v4.29c0 .28.22.5.5.5h4.29a.5.5 0 0 0 .36-.85zm12-4.3L30.7 30.3l-2.16-2.18c-.39-.39-1.03-.39-1.42 0-.39.39-.39 1.03 0 1.42l2.18 2.16-1.45 1.45a.5.5 0 0 0 .36.85h4.29c.28 0 .5-.22.5-.5v-4.29a.5.5 0 0 0-.85-.36z" fill="#FDFBF8"/></svg>