<svg width="109" height="108" viewBox="0 0 109 108" fill="none" xmlns="http://www.w3.org/2000/svg">
<rect x="0.5" width="108" height="108" rx="24" fill="#CAF3E5"/>
<path d="M54.5 20.0894C38.066 20.0894 24.6958 33.4595 24.6958 49.8936C24.6958 51.7148 24.6958 65.8035 24.6958 66.0541C24.6958 69.3409 27.3698 72.015 30.6566 72.015H32.9854C33.8056 74.3275 36.0141 75.9889 38.6044 75.9889C41.8913 75.9889 44.5653 73.3148 44.5653 70.028V53.8675C44.5653 50.5807 41.8913 47.9066 38.6044 47.9066C36.0141 47.9066 33.8056 49.568 32.9854 51.8805H30.6566C29.96 51.8805 29.2916 52.0017 28.6697 52.2223V49.8936C28.6697 35.6507 40.2572 24.0633 54.5 24.0633C68.7429 24.0633 80.3304 35.6507 80.3304 49.8936V52.2223C79.7085 52.0017 79.04 51.8805 78.3434 51.8805H76.0147C75.1945 49.568 72.9859 47.9066 70.3956 47.9066C67.1088 47.9066 64.4348 50.5807 64.4348 53.8675V70.028C64.4348 73.3148 67.1088 75.9889 70.3956 75.9889C70.9971 75.9889 71.5779 75.8985 72.1257 75.732C71.3825 78.1775 69.107 79.9627 66.4217 79.9627H60.1191C59.2989 77.6502 57.0904 75.9889 54.5 75.9889C51.2132 75.9889 48.5392 78.6629 48.5392 81.9497C48.5392 85.2365 51.2132 87.9105 54.5 87.9105C57.0904 87.9105 59.2989 86.2492 60.1191 83.9366H66.4217C71.8997 83.9366 76.3565 79.4799 76.3565 74.0019V72.015H78.3434C81.6302 72.015 84.3043 69.3409 84.3043 66.0541C84.3043 65.8072 84.3043 51.7134 84.3043 49.8936C84.3043 33.4595 70.9341 20.0894 54.5 20.0894ZM36.6175 53.8675C36.6175 52.7719 37.5088 51.8805 38.6044 51.8805C39.7 51.8805 40.5914 52.7719 40.5914 53.8675V70.028C40.5914 71.1236 39.7 72.015 38.6044 72.015C37.5088 72.015 36.6175 71.1236 36.6175 70.028V53.8675ZM30.6566 55.8544H32.6436V68.0411H30.6566C29.561 68.0411 28.6697 67.1497 28.6697 66.0541V57.8414C28.6697 56.7458 29.561 55.8544 30.6566 55.8544ZM54.5 83.9366C53.4044 83.9366 52.5131 83.0453 52.5131 81.9497C52.5131 80.8541 53.4044 79.9627 54.5 79.9627C55.5956 79.9627 56.487 80.8541 56.487 81.9497C56.487 83.0453 55.5956 83.9366 54.5 83.9366ZM72.3826 70.028C72.3826 71.1236 71.4912 72.015 70.3956 72.015C69.3 72.015 68.4087 71.1236 68.4087 70.028V53.8675C68.4087 52.7719 69.3 51.8805 70.3956 51.8805C71.4912 51.8805 72.3826 52.7719 72.3826 53.8675V70.028ZM80.3304 66.0541C80.3304 67.1497 79.439 68.0411 78.3434 68.0411H76.3565V55.8544H78.3434C79.439 55.8544 80.3304 56.7458 80.3304 57.8414V66.0541Z" fill="#70908B"/>
</svg>
